<?xml version="1.0" standalone="no"?>
<!DOCTYPE svg PUBLIC "-//W3C//DTD SVG 20010904//EN"
 "http://www.w3.org/TR/2001/REC-SVG-20010904/DTD/svg10.dtd">
<svg version="1.0" xmlns="http://www.w3.org/2000/svg"
 width="200.000000pt" height="200.000000pt" viewBox="0 0 200.000000 200.000000"
 preserveAspectRatio="xMidYMid meet">
<g transform="translate(0.000000,200.000000) scale(0.100000,-0.100000)"
fill="#000000" stroke="none">
<path d="M815 1965 c-376 -69 -673 -350 -777 -733 -31 -114 -31 -352 0 -476
145 -579 764 -895 1328 -677 218 84 429 287 530 507 57 126 76 212 81 374 5
164 -10 262 -66 406 -97 250 -333 473 -596 564 -141 49 -348 63 -500 35z m168
-12 c-7 -2 -21 -2 -30 0 -10 3 -4 5 12 5 17 0 24 -2 18 -5z m54 1 c-3 -3 -12
-4 -19 -1 -8 3 -5 6 6 6 11 1 17 -2 13 -5z m-114 -11 c-7 -2 -21 -2 -30 0 -10
3 -4 5 12 5 17 0 24 -2 18 -5z m160 0 c-7 -2 -19 -2 -25 0 -7 3 -2 5 12 5 14
0 19 -2 13 -5z m142 -21 c-3 -3 -11 0 -18 7 -9 10 -8 11 6 5 10 -3 15 -9 12
-12z m-505 -15 c-14 -8 -27 -12 -30 -10 -7 6 23 23 40 23 8 0 4 -6 -10 -13z
m515 -16 c309 -82 566 -339 657 -656 20 -69 23 -102 22 -245 0 -150 -3 -173
-27 -253 -96 -312 -322 -538 -634 -634 -81 -25 -102 -27 -253 -27 -194 0 -269
16 -415 89 -237 117 -419 340 -487 595 -19 70 -23 111 -23 235 0 171 17 246
85 392 48 103 85 157 169 245 135 144 318 242 518 278 83 15 299 5 388 -19z
m95 9 c12 -7 10 -9 -8 -7 -12 0 -22 5 -22 9 0 11 12 10 30 -2z m-680 -20 c-8
-5 -19 -10 -25 -10 -5 0 -3 5 5 10 8 5 20 10 25 10 6 0 3 -5 -5 -10z m725 0
c3 -6 -1 -7 -9 -4 -18 7 -21 14 -7 14 6 0 13 -4 16 -10z m69 -42 c-3 -4 -16
-1 -30 8 -32 21 -30 25 5 11 17 -6 28 -14 25 -19z m-864 12 c0 -5 -2 -10 -4
-10 -3 0 -8 5 -11 10 -3 6 -1 10 4 10 6 0 11 -4 11 -10z m-55 -30 c-3 -5 -14
-10 -23 -9 -14 0 -13 2 3 9 27 11 27 11 20 0z m1011 -38 c-6 -5 -55 31 -56 41
0 4 13 -2 30 -14 16 -13 28 -24 26 -27z m-1103 -19 c-15 -16 -35 -32 -43 -38
-9 -5 -7 -2 3 8 11 9 15 17 11 17 -8 0 46 40 54 40 2 0 -9 -12 -25 -27z m1167
-19 c0 4 5 4 10 1 6 -4 8 -11 4 -17 -4 -5 -17 1 -33 16 -15 15 -31 23 -36 19
-4 -5 -5 -2 -1 5 6 11 13 8 32 -9 13 -12 24 -19 24 -15z m70 -61 c26 -27 29
-33 12 -24 -13 7 -26 19 -29 27 -3 7 -10 11 -16 7 -5 -3 -7 -1 -3 5 3 5 0 13
-6 15 -7 3 -8 6 -3 6 6 1 26 -15 45 -36z m-1322 7 c-7 -10 -14 -17 -17 -15 -4
4 18 35 25 35 2 0 -1 -9 -8 -20z m-38 -44 c0 -2 -7 -7 -16 -10 -8 -3 -12 -2
-9 4 6 10 25 14 25 6z m1452 -69 c8 -3 9 -6 1 -6 -13 -1 -53 46 -53 63 0 6 9
-3 19 -20 11 -18 25 -34 33 -37z m-1486 31 c4 -7 4 -10 -1 -6 -4 4 -15 2 -24
-5 -14 -11 -14 -10 -2 6 16 20 18 21 27 5z m1509 -57 c3 -5 2 -12 -3 -15 -5
-3 -9 1 -9 9 0 17 3 19 12 6z m23 -46 c-3 -3 -9 2 -12 12 -6 14 -5 15 5 6 7
-7 10 -15 7 -18z m-1641 -43 c-10 -10 -14 -22 -10 -27 5 -4 2 -5 -5 -1 -11 6
-10 12 4 27 9 10 19 19 22 19 3 0 -2 -8 -11 -18z m1680 -19 c3 -10 13 -26 21
-35 8 -10 11 -18 5 -18 -5 0 -16 12 -24 28 -8 15 -18 30 -24 34 -6 5 -5 8 3 8
7 0 15 -8 19 -17z m-1702 -33 c-3 -5 -12 -10 -18 -10 -7 0 -6 4 3 10 19 12 23
12 15 0z m-24 -44 c-6 -7 -7 -17 -3 -21 4 -5 1 -5 -6 -1 -9 6 -10 11 -3 20 6
7 7 17 3 21 -4 5 -1 5 6 1 9 -6 10 -11 3 -20z m1760 -3 c13 -16 12 -17 -3 -4
-10 7 -18 15 -18 17 0 8 8 3 21 -13z m22 -43 c3 -11 1 -18 -4 -14 -5 3 -9 12
-9 20 0 20 7 17 13 -6z m34 -162 c-3 -8 -6 -5 -6 6 -1 11 2 17 5 13 3 -3 4
-12 1 -19z m10 -40 c-3 -8 -6 -5 -6 6 -1 11 2 17 5 13 3 -3 4 -12 1 -19z m0
-70 c-3 -8 -6 -5 -6 6 -1 11 2 17 5 13 3 -3 4 -12 1 -19z m-1905 -50 c-8 -8
-10 -2 -10 23 1 31 2 32 11 11 7 -16 7 -26 -1 -34z m5 -100 c-3 -8 -6 -5 -6 6
-1 11 2 17 5 13 3 -3 4 -12 1 -19z m1886 -113 c-3 -9 -8 -14 -10 -11 -3 3 -2
9 2 15 9 16 15 13 8 -4z m-1855 -50 c-3 -3 -9 2 -12 12 -6 14 -5 15 5 6 7 -7
10 -15 7 -18z m1852 5 c0 -5 -5 -10 -11 -10 -5 0 -7 5 -4 10 3 6 8 10 11 10 2
0 4 -4 4 -10z m-1813 -115 c0 -8 -4 -12 -9 -9 -5 3 -6 10 -3 15 9 13 12 11 12
-6z m1773 -1 c0 -3 -11 -19 -25 -36 -14 -16 -25 -25 -25 -20 0 5 9 17 20 27
11 10 17 22 14 26 -3 5 0 9 5 9 6 0 11 -3 11 -6z m-1746 -64 c-6 -5 -24 21
-24 34 0 6 6 1 14 -10 8 -10 12 -21 10 -24z m25 -44 c-3 -3 -11 5 -18 17 -13
21 -12 21 5 5 10 -10 16 -20 13 -22z m1681 20 c0 -2 -7 -7 -16 -10 -8 -3 -12
-2 -9 4 6 10 25 14 25 6z m-1659 -53 c13 -16 12 -17 -3 -4 -10 7 -18 15 -18
17 0 8 8 3 21 -13z m1605 -18 c-1 -8 -13 -26 -26 -40 -13 -14 -20 -25 -16 -25
4 0 4 -5 1 -10 -4 -6 -11 -8 -17 -4 -5 4 0 17 15 33 13 14 27 34 30 44 8 21
16 23 13 2z m-1553 -58 c-8 -12 -26 9 -30 34 -3 21 -3 21 16 -2 11 -13 17 -28
14 -32z m72 -85 c-4 -4 -55 47 -55 56 0 3 13 -7 30 -23 16 -16 28 -30 25 -33z
m1394 25 c-2 -1 -13 -9 -24 -17 -19 -14 -19 -14 -6 3 7 9 18 17 24 17 6 0 8
-1 6 -3z m-44 -37 c3 -5 1 -10 -4 -10 -6 0 -11 5 -11 10 0 6 2 10 4 10 3 0 8
-4 11 -10z m-1291 -35 c22 -20 50 -45 61 -55 12 -11 27 -20 35 -21 11 0 11 -2
2 -6 -7 -2 -29 9 -50 27 -72 61 -104 90 -97 90 4 0 26 -16 49 -35z m1256 -4
c0 -5 -7 -12 -16 -15 -14 -5 -15 -4 -4 9 14 17 20 19 20 6z m-68 -48 c-6 -2
-9 -10 -6 -15 4 -7 2 -8 -5 -4 -13 9 -5 26 12 25 9 0 8 -2 -1 -6z m-28 -21 c3
-5 -1 -9 -9 -9 -8 0 -12 4 -9 9 3 4 7 8 9 8 2 0 6 -4 9 -8z m-1030 -20 c3 -5
-1 -9 -9 -9 -8 0 -12 4 -9 9 3 4 7 8 9 8 2 0 6 -4 9 -8z m948 -34 c-7 -7 -12
-8 -12 -2 0 14 12 26 19 19 2 -3 -1 -11 -7 -17z m-897 2 c3 -5 1 -10 -4 -10
-6 0 -11 5 -11 10 0 6 2 10 4 10 3 0 8 -4 11 -10z m875 -14 c0 -2 -7 -7 -16
-10 -8 -3 -12 -2 -9 4 6 10 25 14 25 6z m-798 -20 c7 4 8 2 4 -4 -4 -6 -13 -9
-21 -6 -8 4 -12 11 -8 17 5 8 8 7 11 -1 2 -7 9 -9 14 -6z m758 0 c0 -2 -7 -6
-15 -10 -8 -3 -15 -1 -15 4 0 6 7 10 15 10 8 0 15 -2 15 -4z m-45 -16 c-3 -5
-14 -10 -23 -9 -14 0 -13 2 3 9 27 11 27 11 20 0z m-625 -20 c8 -5 11 -10 5
-10 -5 0 -17 5 -25 10 -8 5 -10 10 -5 10 6 0 17 -5 25 -10z m575 0 c-3 -5 -12
-10 -18 -10 -7 0 -6 4 3 10 19 12 23 12 15 0z m-495 -20 c8 -5 11 -10 5 -10
-5 0 -17 5 -25 10 -8 5 -10 10 -5 10 6 0 17 -5 25 -10z m430 6 c0 -2 -7 -7
-16 -10 -8 -3 -12 -2 -9 4 6 10 25 14 25 6z"/>
<path d="M910 1889 c-201 -17 -397 -109 -544 -256 -113 -112 -200 -262 -242
-413 -26 -92 -27 -358 -1 -449 53 -191 148 -343 292 -464 169 -142 357 -209
585 -210 351 0 657 194 809 514 164 344 94 748 -178 1020 -192 192 -443 282
-721 258z m107 -25 c-3 -3 -12 -4 -19 -1 -8 3 -5 6 6 6 11 1 17 -2 13 -5z
m-157 -8 c0 -3 -4 -8 -10 -11 -5 -3 -10 -1 -10 4 0 6 5 11 10 11 6 0 10 -2 10
-4z m120 -23 c0 -16 3 -45 6 -65 5 -31 4 -38 -9 -38 -9 0 -28 17 -42 38 l-26
37 3 -40 c2 -31 -1 -40 -15 -43 -15 -3 -17 5 -17 62 0 77 16 87 50 31 12 -19
24 -35 26 -35 2 0 1 18 -2 40 -5 33 -4 40 10 40 11 0 16 -9 16 -27z m78 -38
c-2 -56 -5 -65 -21 -65 -13 0 -17 5 -13 16 3 9 6 38 6 65 0 38 4 49 16 49 13
0 15 -11 12 -65z m82 5 l5 -45 19 43 c17 39 34 51 48 36 4 -3 -9 -32 -29 -64
-37 -62 -58 -69 -67 -22 -18 99 -18 104 1 100 13 -2 19 -15 23 -48z m-304 -10
c11 -38 11 -48 -2 -67 -16 -26 -55 -31 -73 -9 -6 7 -17 34 -25 60 -13 43 -13
46 4 46 14 0 20 -11 25 -41 7 -39 24 -57 44 -45 6 4 5 22 -3 51 -8 24 -11 47
-8 50 13 12 26 -3 38 -45z m-136 20 c-8 -5 -10 -10 -4 -10 6 0 11 -6 11 -12 0
-7 4 -22 8 -33 5 -14 4 -16 -2 -7 -8 10 -12 10 -23 -3 -11 -13 -10 -15 3 -10
8 4 18 1 22 -4 3 -6 11 -8 17 -5 6 4 8 2 5 -3 -4 -6 0 -16 8 -23 19 -16 19
-26 -1 -34 -12 -5 -14 -3 -8 7 5 7 2 5 -7 -5 -15 -15 -18 -16 -29 -3 -7 8 -10
24 -7 34 3 14 1 18 -9 14 -8 -3 -11 -10 -8 -17 4 -6 -5 1 -20 17 -15 15 -31
27 -37 27 -6 0 -7 5 -4 10 3 6 1 10 -5 10 -15 0 19 34 35 36 7 1 21 7 32 13
23 13 43 14 23 1z m595 -4 c43 -18 47 -40 6 -31 -36 8 -52 -12 -16 -21 14 -3
24 -11 22 -18 -5 -12 -11 -12 -39 -1 -13 5 -18 2 -18 -9 0 -8 11 -18 25 -22
14 -4 24 -11 22 -18 -4 -12 -24 -10 -63 4 l-23 9 22 61 c12 33 23 60 25 60 1
0 18 -7 37 -14z m-202 -56 c3 -11 1 -18 -4 -14 -5 3 -9 12 -9 20 0 20 7 17 13
-6z m355 -39 c2 -12 -6 -26 -22 -36 -20 -13 -24 -23 -20 -41 4 -14 2 -24 -4
-24 -16 0 -27 22 -23 48 3 25 -16 30 -25 7 -7 -17 -34 -21 -34 -5 0 5 14 32
31 60 l31 51 32 -20 c17 -11 32 -29 34 -40z m-806 -18 c35 -30 36 -52 3 -39
-22 8 -45 -4 -45 -23 0 -9 -22 -33 -49 -53 l-49 -37 -41 49 c-33 39 -38 50
-27 59 10 9 17 6 29 -11 44 -63 45 -63 66 -44 11 10 25 15 30 11 14 -8 14 11
0 76 -9 41 -9 53 2 60 14 8 22 4 81 -48z m-112 32 c-7 -8 -8 -20 -3 -27 12
-19 11 -62 -1 -70 -21 -15 -29 -8 -12 11 17 19 17 20 -4 31 -13 7 -20 8 -16 2
3 -6 0 -13 -6 -16 -7 -3 -2 -3 11 0 16 4 21 3 17 -5 -11 -17 -34 -13 -46 8
-14 28 -14 28 28 55 44 29 48 31 32 11z m484 -3 c3 -5 -1 -9 -9 -9 -8 0 -12 4
-9 9 3 4 7 8 9 8 2 0 6 -4 9 -8z m81 -10 c-3 -3 -11 0 -18 7 -9 10 -8 11 6 5
10 -3 15 -9 12 -12z m-221 0 c3 -5 -1 -9 -9 -9 -8 0 -12 4 -9 9 3 4 7 8 9 8 2
0 6 -4 9 -8z m631 -2 c3 -5 1 -10 -4 -10 -6 0 -11 5 -11 10 0 6 2 10 4 10 3 0
8 -4 11 -10z m-349 -40 c104 -27 205 -76 276 -134 223 -182 315 -479 232 -746
-20 -63 -33 -42 -15 24 19 68 21 87 22 177 1 357 -272 650 -629 675 -314 23
-608 -182 -695 -484 -13 -45 -27 -85 -32 -89 -16 -15 5 86 31 151 130 325 481
510 810 426z m393 -14 c17 -18 19 -26 10 -31 -7 -5 -17 -1 -24 8 -11 16 -35
24 -35 12 0 -3 7 -16 15 -29 18 -27 11 -53 -17 -62 -27 -8 -78 40 -61 57 8 8
14 6 22 -10 10 -19 48 -32 39 -13 -2 4 -10 19 -17 34 -11 22 -12 30 -1 43 18
22 43 19 69 -9z m-481 -20 c7 -4 12 -2 12 4 0 8 6 9 18 5 9 -5 37 -11 61 -14
25 -3 46 -12 49 -20 3 -9 0 -11 -8 -6 -8 5 -11 4 -7 -2 9 -14 47 -23 47 -11 0
11 40 1 55 -15 7 -7 6 -8 -1 -4 -6 3 -11 0 -11 -8 0 -11 5 -12 19 -4 18 10 42
-1 68 -32 3 -3 19 -14 37 -24 18 -10 30 -22 27 -27 -3 -4 1 -8 8 -9 7 0 4 -5
-7 -10 -17 -8 -16 -9 8 -5 17 2 26 -1 24 -8 -2 -6 5 -15 16 -21 11 -5 18 -13
16 -17 -2 -4 6 -15 19 -23 23 -17 30 -45 11 -45 -5 0 -7 5 -4 10 3 6 -1 10
-11 10 -14 0 -14 -3 -4 -15 7 -9 22 -14 34 -13 14 2 22 -3 24 -17 2 -11 11
-28 21 -39 15 -18 14 -18 -37 -15 -28 2 -52 1 -52 -3 0 -4 24 -8 53 -10 44 -3
52 -6 49 -22 -2 -13 1 -16 10 -10 10 6 9 3 -1 -10 -10 -12 -11 -16 -2 -14 9 2
40 -59 41 -82 0 -2 -18 13 -40 35 -34 33 -41 36 -56 24 -14 -12 -22 -7 -61 34
l-45 48 -41 -41 c-23 -22 -45 -40 -49 -40 -5 0 -8 25 -8 55 0 40 4 55 14 55
13 0 26 59 26 119 l0 26 -161 -3 -161 -2 4 29 c2 21 -7 40 -32 70 l-35 41
-175 1 c-164 0 -172 1 -131 14 24 8 47 18 50 24 4 6 17 12 29 14 12 2 25 6 28
10 11 11 36 8 29 -3 -3 -6 1 -7 9 -4 9 3 14 10 11 14 -3 5 7 10 22 12 48 6
178 2 191 -6z m556 -45 c8 -13 -91 -94 -105 -86 -7 5 5 23 32 51 43 43 62 53
73 35z m-1186 -34 c26 -24 28 -53 5 -79 -24 -27 -68 -23 -92 8 -28 35 -26 58
5 83 28 22 47 19 82 -12z m200 -77 c-3 -52 0 -70 9 -70 10 0 13 -23 13 -85 0
-69 -3 -85 -15 -85 -10 0 -15 -11 -15 -35 0 -38 -10 -44 -30 -20 -7 9 -18 14
-24 12 -6 -3 -19 2 -28 11 -16 13 -22 11 -61 -21 -31 -25 -47 -33 -55 -25 -7
7 -20 3 -45 -16 -46 -35 -53 -33 -28 10 12 20 21 41 20 47 -1 7 3 24 9 40 7
15 17 39 22 53 9 23 12 25 28 13 15 -13 16 -12 4 3 -12 15 -12 20 1 32 8 8 17
12 21 9 3 -4 6 -1 6 4 0 6 -6 14 -12 16 -7 3 -2 6 10 6 14 1 22 6 20 13 -3 7
10 27 28 44 18 18 29 36 26 41 -4 4 2 1 12 -7 18 -14 19 -13 13 3 -7 19 8 24
17 5 3 -7 3 -2 0 11 -5 19 -3 23 10 18 9 -4 15 -3 13 1 -2 7 24 41 32 42 1 0
1 -31 -1 -70z m1046 36 c14 -19 26 -39 26 -45 0 -16 -20 -13 -26 4 -5 12 -15
9 -50 -17 -32 -23 -47 -29 -55 -21 -8 8 0 19 30 38 34 23 40 32 35 51 -9 34 9
30 40 -10z m-664 -8 c28 -32 41 -88 20 -88 -5 0 -10 9 -10 21 0 11 -9 34 -21
50 l-20 29 -155 0 -154 0 0 -35 c0 -26 4 -35 16 -35 14 0 15 -8 10 -52 -10
-89 -10 -192 0 -195 8 -3 11 11 15 95 1 17 7 32 13 32 6 0 4 5 -4 10 -8 5 -10
10 -5 10 15 0 6 92 -11 110 -8 10 -10 20 -4 30 8 12 10 12 10 1 0 -9 6 -11 18
-6 28 12 76 14 94 4 11 -6 18 -5 20 3 5 13 28 2 28 -13 0 -6 -15 -9 -32 -7
-47 4 -68 -17 -68 -70 0 -24 6 -50 14 -58 18 -17 67 -18 85 -1 11 10 12 9 6
-1 -6 -11 -3 -12 14 -3 19 11 21 9 21 -14 0 -24 -10 -32 -24 -18 -10 10 -99 3
-113 -9 -7 -6 -13 -27 -13 -47 0 -54 16 -70 76 -72 61 -3 82 13 86 61 1 17 6
34 10 36 4 3 6 -10 4 -28 -2 -18 -4 -57 -5 -85 l-1 -53 -107 0 c-87 0 -113 4
-135 18 -21 14 -25 21 -16 30 17 17 18 42 2 42 -8 0 -14 -10 -14 -25 0 -16 -6
-25 -16 -25 -11 0 -14 5 -10 16 3 9 6 24 6 35 0 10 7 19 15 19 12 0 15 14 15
68 0 37 3 84 6 105 5 30 4 37 -10 37 -13 0 -16 11 -16 55 l0 55 165 0 165 0
30 -32z m593 12 c-3 -11 -9 -20 -14 -20 -14 0 -11 28 4 33 6 3 13 6 14 6 0 1
-1 -8 -4 -19z m-1300 -14 c4 -10 1 -13 -8 -9 -8 3 -12 9 -9 14 7 12 11 11 17
-5z m637 -17 c0 -5 5 -7 10 -4 6 4 18 4 27 1 12 -5 13 -9 4 -20 -9 -11 -9 -16
0 -22 8 -4 9 -3 5 4 -4 7 -3 12 2 12 8 0 22 -22 22 -36 0 -2 -18 -4 -40 -4
-26 0 -40 5 -40 13 0 15 -36 48 -44 40 -3 -4 -6 -1 -6 5 0 5 6 13 13 15 22 9
47 7 47 -4z m621 -15 c-12 -9 -18 -21 -15 -27 5 -9 4 -9 -5 -1 -17 15 -4 39
21 41 l21 2 -22 -15z m-1240 -23 c22 -17 46 -32 52 -34 9 -3 9 -8 0 -18 -12
-12 -34 -1 -112 57 -4 3 8 24 15 24 2 0 22 -13 45 -29z m592 -22 c5 -9 7 -28
3 -42 -6 -25 -10 -27 -66 -27 l-60 0 0 45 0 46 56 -3 c39 -2 60 -8 67 -19z
m776 12 c2 -1 -3 -9 -12 -19 -10 -10 -14 -22 -10 -26 4 -4 -1 -4 -11 0 -13 5
-17 4 -13 -3 9 -14 -43 -27 -56 -14 -7 7 -2 8 14 4 24 -5 24 -5 4 11 -11 10
-15 15 -9 12 7 -3 14 3 17 14 3 13 10 18 21 14 9 -3 16 -2 16 4 0 6 8 9 18 7
9 -2 19 -4 21 -4z m51 -22 c0 -3 -9 -15 -20 -27 l-21 -22 35 0 c22 0 36 -6 40
-16 6 -14 0 -16 -41 -11 -32 3 -54 0 -69 -9 -35 -24 -39 9 -4 35 16 11 37 34
46 51 13 20 20 26 26 17 4 -6 8 -15 8 -18z m-1496 13 c3 -5 -1 -9 -9 -9 -8 0
-12 4 -9 9 3 4 7 8 9 8 2 0 6 -4 9 -8z m26 -37 c7 -8 21 -15 31 -15 30 0 39
-29 21 -67 -9 -18 -20 -33 -24 -33 -5 0 -31 11 -58 25 l-50 25 16 33 c25 48
43 57 64 32z m858 -45 c-2 -29 -8 -50 -14 -50 -15 0 -24 -48 -24 -126 l0 -64
40 0 c24 0 42 5 44 13 3 6 7 49 10 95 6 71 4 82 -9 82 -13 0 -15 10 -13 48 l3
47 99 3 c87 2 98 1 92 -13 -3 -9 -6 -32 -6 -51 0 -22 -5 -34 -14 -34 -10 0
-15 -29 -20 -117 -7 -115 -8 -119 -39 -150 -18 -18 -42 -33 -54 -33 -27 0 -30
-12 -8 -30 19 -16 19 -27 0 -27 -8 0 -12 4 -10 8 3 4 -4 18 -16 30 -20 24 -21
19 -2 -28 4 -10 3 -14 -5 -10 -6 4 -13 20 -16 35 -6 24 -11 27 -46 27 -22 0
-40 -1 -40 -3 0 -1 10 -18 23 -38 21 -34 23 -35 80 -32 31 2 57 1 57 -2 0 -9
75 -31 103 -30 17 0 37 -9 53 -25 14 -14 30 -25 36 -25 7 0 8 -14 4 -42 -4
-23 -8 -43 -9 -45 -1 -1 -41 -3 -87 -4 -103 -2 -135 9 -154 54 -8 19 -20 38
-27 43 -19 11 -160 33 -176 27 -17 -7 -43 -56 -43 -82 0 -18 5 -20 53 -15 28
2 46 2 40 -2 -18 -8 -16 -24 2 -24 8 0 15 4 15 10 0 5 6 7 14 4 9 -3 17 9 26
41 13 48 33 56 37 14 1 -13 0 -18 -3 -11 -3 6 -10 9 -15 6 -6 -3 -4 -11 4 -17
18 -14 4 -63 -14 -51 -8 4 -7 9 2 15 8 5 9 9 3 9 -6 0 -18 -8 -27 -18 -12 -13
-27 -17 -52 -14 -19 2 -35 8 -35 12 0 4 -13 7 -29 6 -17 -1 -28 2 -25 6 7 11
-3 10 -24 -3 -14 -9 -37 -8 -90 1 -71 12 -72 12 -83 51 -16 51 -24 43 -10 -9
12 -41 32 -52 100 -52 21 0 23 -2 11 -11 -11 -8 -5 -9 24 -5 34 5 38 3 25 -9
-14 -14 -25 -13 -136 11 -13 2 -23 11 -23 20 0 8 -3 13 -7 11 -5 -3 -8 12 -8
33 -1 50 -21 86 -56 101 -16 6 -29 18 -29 25 0 25 110 7 138 -22 14 -15 33
-23 50 -23 l27 2 -27 4 c-14 2 -32 12 -40 21 -11 15 -11 15 2 6 8 -6 31 -14
51 -18 l36 -6 15 70 15 70 -36 5 c-20 4 -44 8 -53 10 -26 5 -38 -16 -40 -73
-2 -34 -6 -48 -12 -42 -6 6 -28 10 -50 10 -21 0 -36 3 -32 7 4 4 23 6 42 4 27
-2 34 1 34 16 0 10 3 29 7 43 6 23 5 24 -11 11 -9 -8 -14 -21 -11 -30 3 -8 3
-12 -1 -8 -4 4 -16 0 -26 -10 -30 -27 -20 -3 17 43 l36 43 187 -5 c215 -7 283
-23 95 -24 -71 0 -124 4 -128 10 -3 6 -12 10 -18 10 -8 0 -8 -3 1 -9 7 -4 24
-34 37 -67 l24 -58 -27 -18 c-15 -10 -40 -19 -57 -19 l-30 -2 28 -4 c17 -3 41
4 62 17 19 12 43 21 52 20 40 -5 43 -1 43 53 0 46 3 53 20 54 11 1 20 -1 20
-5 0 -11 74 -8 82 3 4 5 15 1 27 -9 12 -11 21 -14 21 -8 0 7 8 12 18 12 10 0
30 12 44 28 27 29 37 82 38 210 0 48 3 62 15 62 8 0 15 6 15 14 0 8 3 21 6 30
5 14 -5 16 -75 16 l-81 0 0 -30 c0 -20 5 -30 15 -30 13 0 14 -15 9 -102 -4
-57 -11 -109 -17 -116 -7 -8 -28 -12 -61 -10 l-51 3 -3 50 c-6 81 7 175 24
175 9 0 14 11 14 30 l0 30 -74 0 c-68 0 -74 -2 -80 -22 -9 -34 -8 -38 9 -38
17 0 19 -39 9 -163 -11 -122 -27 -92 -19 33 7 101 6 110 -10 110 -13 0 -16 5
-11 23 3 12 6 34 6 50 l0 27 96 0 95 0 -3 -50z m-64 -1 c-3 -5 0 -9 7 -9 10 0
10 -3 1 -12 -10 -10 -15 -10 -22 2 -6 9 -10 10 -10 3 0 -6 5 -15 10 -18 8 -5
7 -12 -2 -23 -7 -9 -8 -13 -2 -9 12 7 12 -93 -1 -132 -4 -13 -2 -28 5 -36 7
-8 9 -15 4 -15 -5 0 -2 -5 6 -10 11 -7 2 -10 -31 -10 l-47 0 10 43 c16 72 15
190 -2 204 -13 11 -13 14 0 23 8 5 20 8 27 5 7 -2 15 0 18 5 3 5 12 7 20 4 8
-4 12 -10 9 -15z m210 10 c21 2 26 -1 20 -10 -5 -9 -2 -10 12 -5 18 7 18 6 -1
-12 -11 -11 -22 -18 -25 -17 -3 2 -5 -34 -4 -78 0 -45 -3 -86 -6 -92 -14 -20
-20 -46 -10 -40 21 13 9 -13 -21 -46 -18 -19 -29 -29 -25 -22 3 6 1 15 -5 19
-7 4 -9 3 -6 -2 3 -6 3 -15 -1 -21 -4 -6 -17 0 -34 17 l-27 28 23 -2 c13 0 22
-4 19 -8 -2 -5 -2 -8 2 -8 3 0 10 12 15 26 12 30 33 22 25 -9 -5 -19 -5 -20 5
-4 6 9 8 23 4 29 -10 15 -14 98 -5 98 14 0 1 110 -16 136 -10 16 -12 25 -5 21
7 -5 12 -3 12 3 0 6 5 8 12 3 7 -4 26 -6 42 -4z m524 -62 c-6 -12 -6 -17 0
-13 12 7 37 -50 34 -80 -1 -13 3 -26 8 -29 6 -4 6 -15 0 -31 -7 -18 -6 -26 4
-30 11 -4 20 -87 17 -149 -3 -53 -8 -82 -14 -92 -5 -7 -6 -17 -3 -22 5 -8 -17
-108 -31 -141 -3 -8 -5 -21 -4 -29 1 -7 -2 -10 -8 -6 -7 4 -8 0 -4 -11 5 -14
3 -16 -12 -11 -15 6 -16 5 -5 -7 10 -12 8 -21 -9 -45 -12 -16 -21 -32 -21 -37
0 -17 -52 -74 -62 -68 -7 4 -8 2 -4 -4 4 -7 4 -18 -1 -24 -4 -7 -8 -16 -8 -20
0 -5 -4 -8 -9 -7 -5 0 -12 -5 -17 -12 -6 -10 -11 -10 -23 0 -9 7 -14 17 -11
21 2 4 -4 15 -15 25 -16 15 -18 21 -8 34 9 11 6 10 -9 -2 -21 -18 -22 -18 -34
1 -12 19 -14 19 -27 4 -9 -12 -11 -12 -6 -2 4 8 -7 2 -24 -14 -21 -19 -37 -26
-49 -22 -16 5 -16 4 2 -9 19 -15 19 -16 1 -33 -11 -9 -16 -12 -13 -6 6 11 -12
32 -42 49 -10 6 -12 4 -6 -6 8 -12 6 -12 -8 0 -11 9 -17 10 -17 2 0 -6 -5 -11
-11 -11 -5 0 -7 6 -3 13 6 9 4 9 -7 1 -16 -13 -45 -16 -156 -17 -96 -1 -193 6
-193 14 0 3 -10 4 -22 2 -13 -2 -41 5 -62 16 -21 11 -43 18 -48 15 -5 -3 -26
5 -46 19 -20 14 -48 28 -62 31 l-25 7 25 -15 c32 -20 4 -20 -30 -1 -14 8 -34
14 -45 14 -13 0 -6 -6 20 -19 22 -11 31 -18 20 -14 -11 3 -41 8 -67 11 -26 3
-45 9 -43 13 3 4 -24 10 -59 12 -64 4 -122 30 -110 49 4 6 12 5 22 -3 10 -7 5
1 -11 18 -15 17 -24 34 -20 39 5 4 2 5 -5 1 -8 -5 -21 -1 -33 10 -10 9 -19 14
-19 9 0 -4 11 -16 25 -27 45 -35 25 -51 -29 -23 -36 19 -45 19 -20 0 16 -12
17 -14 2 -15 -25 0 -78 49 -78 73 0 20 1 20 27 -4 l27 -24 -23 33 c-22 31 -22
34 -6 58 14 22 23 25 55 22 21 -2 36 0 34 4 -3 5 -17 9 -32 9 -27 1 -27 1 3 8
25 5 27 8 12 14 -32 12 -76 8 -85 -9 -7 -13 -13 -14 -30 -5 -48 25 -36 111 14
111 15 0 36 -8 47 -18 16 -13 19 -14 15 -2 -2 8 -19 19 -36 24 -17 6 -34 16
-36 23 -8 19 29 53 57 53 29 0 87 -36 87 -54 0 -15 73 -96 85 -96 4 0 -7 18
-24 39 -21 27 -27 41 -19 44 29 10 -59 73 -133 97 -60 18 -83 31 -118 68 -25
26 -42 39 -38 29 4 -9 10 -24 14 -34 4 -10 2 -14 -4 -10 -5 3 -10 0 -10 -8 0
-8 4 -12 9 -9 12 7 48 -5 48 -17 0 -6 -10 -5 -22 2 -20 11 -21 10 -10 -3 7 -9
36 -19 65 -23 l52 -8 -44 -8 c-24 -5 -47 -11 -50 -15 -3 -4 6 -5 21 -2 17 3
25 1 21 -5 -3 -5 -6 -23 -5 -38 0 -16 -4 -29 -9 -29 -5 0 -14 -12 -20 -27 -13
-34 3 -76 37 -98 27 -17 34 -48 8 -38 -12 4 -12 8 -4 13 9 5 6 10 -9 15 -12 4
-31 25 -42 48 -17 34 -18 47 -10 70 6 15 17 27 25 27 9 0 13 6 10 15 -5 12 -9
11 -26 -5 -23 -21 -48 -16 -49 9 0 12 -2 11 -8 -4 -5 -13 -3 -24 7 -31 10 -7
13 -18 8 -29 -6 -17 -9 -15 -26 13 -16 25 -19 46 -16 109 6 135 5 130 16 113
5 -8 10 -10 10 -5 0 6 -6 17 -12 24 -10 10 -10 15 -1 18 7 2 9 11 6 19 -3 7 5
46 17 86 20 65 23 71 35 54 8 -10 19 -15 26 -10 8 4 10 3 5 -4 -4 -7 -1 -12 8
-12 8 0 31 -7 50 -16 l34 -17 -13 -41 c-7 -22 -16 -54 -20 -71 -6 -26 -8 -27
-14 -11 -8 21 -46 32 -56 16 -3 -5 -13 -7 -23 -4 -13 5 -14 4 -4 -4 8 -5 14
-13 14 -18 0 -5 4 -8 10 -6 5 1 7 -2 3 -8 -10 -16 66 -44 85 -32 25 15 70 -9
120 -64 24 -27 36 -37 27 -21 -10 15 -13 27 -7 27 5 0 10 -4 10 -10 0 -5 14
-26 32 -47 30 -36 31 -37 4 -13 l-29 25 17 -27 c10 -14 24 -29 32 -32 9 -3 12
-1 9 4 -10 16 5 11 32 -10 14 -11 30 -20 36 -20 5 0 -9 14 -32 30 -23 17 -45
38 -48 47 -4 9 -15 25 -25 35 -21 21 -23 43 -6 54 8 5 6 11 -7 20 -16 12 -16
13 3 11 11 0 18 -5 16 -9 -3 -4 6 -13 20 -19 15 -7 30 -27 38 -48 9 -26 13
-31 16 -18 3 14 10 17 28 13 34 -9 30 3 -6 15 -19 7 -30 18 -30 29 0 27 21 30
60 8 l35 -20 -28 26 c-23 21 -25 27 -13 32 9 3 27 -1 41 -10 14 -9 25 -14 25
-11 0 3 -14 14 -31 24 -30 18 -33 18 -65 3 -18 -10 -34 -23 -34 -31 0 -10 -7
-8 -24 8 -14 13 -22 30 -19 37 4 11 -5 8 -31 -7 -20 -11 -33 -25 -30 -30 3 -5
0 -9 -5 -9 -23 0 -9 28 39 81 29 31 49 48 50 38 0 -8 -6 -21 -12 -28 -11 -11
-10 -13 5 -8 9 4 17 2 17 -4 0 -6 7 -6 19 1 25 13 44 13 36 0 -3 -5 -2 -10 4
-10 5 0 12 4 16 9 7 12 -31 25 -46 15 -8 -5 -9 -3 -4 6 6 9 4 12 -6 8 -9 -4
-15 1 -16 11 -1 16 2 16 40 -2 23 -11 75 -38 115 -59 59 -32 71 -43 61 -54 -9
-11 -22 -6 -71 32 -41 32 -63 43 -70 36 -7 -7 2 -16 28 -30 47 -24 89 -67 79
-81 -3 -6 -10 -9 -15 -6 -4 3 -7 -2 -6 -11 0 -10 -15 -25 -36 -36 -21 -11 -38
-26 -38 -34 0 -25 23 -62 41 -67 11 -3 19 -14 19 -27 0 -17 -4 -20 -17 -15
-70 30 -121 18 -149 -36 -28 -55 -10 -173 31 -196 9 -5 40 -6 72 -2 30 4 62 5
71 2 10 -4 13 -2 8 5 -14 22 38 13 79 -15 l40 -26 -23 26 c-32 34 -79 54 -95
38 -6 -6 -14 -11 -18 -11 -10 0 22 83 36 93 10 8 96 2 143 -10 18 -4 22 -11
20 -31 -3 -25 -26 -33 -92 -33 -19 0 -19 0 0 -13 10 -7 38 -21 61 -32 23 -10
43 -25 43 -32 0 -36 100 -97 100 -62 0 6 12 15 26 20 14 6 23 14 19 19 -8 14
15 25 27 13 8 -8 8 -15 0 -24 -7 -9 -8 -19 -1 -28 8 -12 9 -11 7 4 -2 10 3 21
11 24 9 3 11 0 6 -8 -5 -8 -4 -11 3 -6 16 10 3 35 -27 51 -18 10 -21 14 -9 15
11 0 16 6 13 20 -4 22 2 25 25 10 10 -6 21 -3 37 12 31 29 29 15 -2 -16 -13
-14 -27 -20 -30 -15 -4 5 -10 9 -15 9 -13 0 -6 -27 15 -50 l18 -20 33 25 c18
14 35 21 39 16 3 -6 34 -10 68 -9 74 0 52 13 -42 24 -43 5 -61 3 -61 -5 0 -6
-6 -11 -14 -11 -8 0 -17 -6 -19 -12 -4 -10 -6 -10 -6 -1 -1 7 10 20 24 29 14
9 25 24 25 34 0 20 50 37 132 44 75 6 94 0 108 -34 10 -24 70 -89 70 -76 0 14
-13 35 -19 31 -4 -2 -8 2 -8 10 0 13 3 13 18 -1 10 -9 23 -13 30 -9 7 5 19 -1
28 -14 16 -21 17 -21 17 -2 0 11 -4 18 -7 15 -4 -2 -10 0 -14 6 -5 9 7 14 27
11 4 0 5 5 2 13 -3 8 0 17 7 22 7 4 10 3 5 -4 -3 -6 -2 -14 4 -17 8 -5 8 -11
1 -19 -8 -9 -6 -18 8 -30 14 -13 21 -14 27 -5 4 7 3 10 -3 6 -6 -4 -16 0 -23
8 -12 14 -7 20 14 16 5 -1 3 5 -4 14 -7 8 -10 18 -7 22 4 3 2 14 -3 24 -8 14
-6 19 10 24 12 4 27 1 35 -5 10 -9 15 -9 15 -1 0 6 -11 18 -25 27 -30 20 -26
31 4 14 17 -9 21 -8 21 5 0 8 5 15 10 15 7 0 7 -7 0 -21 -15 -26 -7 -35 13
-15 8 8 18 12 22 8 4 -4 3 3 -4 15 -7 14 -8 24 -1 28 5 3 10 12 10 20 0 8 5
26 12 42 6 15 13 46 15 68 1 22 6 47 9 55 8 20 13 120 5 116 -3 -2 -7 21 -9
52 -2 31 -8 62 -14 69 -6 7 -8 13 -5 13 4 0 -1 19 -9 43 -25 68 -33 97 -26 96
4 -1 9 0 12 1 3 1 30 4 60 7 30 2 59 9 64 14 15 14 26 -12 14 -34z m-890 -40
c5 -43 -13 -57 -74 -57 l-54 0 0 45 0 46 63 -3 c60 -3 62 -4 65 -31z m255 11
c-2 -5 -3 -37 -3 -73 0 -64 -1 -65 -26 -65 -26 0 -27 1 -20 53 3 28 6 62 6 75
0 19 5 23 23 20 12 -2 21 -6 20 -10z m267 -83 c-9 -25 -9 -26 5 -15 18 15 20
0 3 -19 -11 -11 -9 -11 10 -2 17 9 21 18 16 33 -6 21 -6 21 14 2 27 -26 46
-64 32 -64 -6 0 -2 -14 10 -30 18 -25 25 -28 36 -19 11 9 14 8 15 -7 0 -11 3
-14 6 -6 8 20 -17 44 -33 31 -10 -8 -12 -5 -10 16 5 43 22 52 51 25 27 -25 35
-51 10 -30 -9 8 -15 9 -15 2 0 -6 5 -14 10 -17 6 -4 7 -12 3 -18 -3 -7 4 -3
17 8 13 11 20 14 16 8 -4 -7 -2 -13 3 -13 15 0 14 -57 -1 -63 -7 -2 -21 0 -32
5 -12 7 -16 7 -12 0 8 -14 -76 -11 -86 3 -5 7 -11 7 -15 0 -5 -6 -19 -11 -33
-12 -33 -1 -58 -7 -66 -16 -4 -4 -30 -8 -58 -9 -68 -2 92 -15 229 -19 85 -2
92 -3 50 -9 -49 -7 -47 -11 8 -15 35 -3 38 -6 30 -33 -4 -18 -13 -22 -52 -24
l-46 -2 46 -3 c41 -4 46 -7 42 -24 -3 -11 -14 -19 -27 -20 -19 -1 -18 -2 4 -8
17 -5 21 -9 12 -15 -7 -4 -10 -12 -7 -17 4 -5 -1 -12 -9 -15 -9 -3 -13 -11 -9
-17 4 -7 0 -8 -11 -4 -10 4 -24 7 -32 7 -8 0 -14 5 -14 11 0 7 10 9 27 4 23
-5 25 -4 14 9 -10 12 -18 13 -32 5 -11 -5 -25 -6 -32 -2 -8 5 -1 10 18 13 19
4 39 0 55 -9 18 -12 22 -12 16 -2 -20 31 -126 55 -141 31 -4 -7 9 -9 37 -5 48
6 26 -7 -29 -18 -31 -6 -32 -6 -23 19 11 27 6 44 -12 44 -5 0 -19 11 -30 25
-11 14 -25 25 -33 25 -27 0 -121 34 -132 49 -18 21 0 31 57 31 25 0 52 4 60
10 10 6 -1 8 -33 6 -33 -3 -47 0 -44 8 2 6 12 10 21 10 10 -1 15 0 12 3 -3 3
1 17 8 32 7 14 11 38 10 54 -2 16 2 27 10 27 6 0 29 18 51 40 21 22 40 38 42
36 2 -2 -1 -16 -7 -31z m-1027 -56 c-6 -6 -9 -17 -7 -23 3 -7 -7 -18 -21 -24
-20 -9 -25 -9 -19 0 5 8 1 9 -12 5 -10 -4 -3 6 16 23 33 28 67 43 43 19z
m-169 -5 c9 -3 16 -13 16 -21 0 -8 5 -11 13 -7 9 5 9 4 0 -6 -10 -11 -16 -9
-33 10 -27 31 -27 36 4 24z m659 -41 c-24 -2 -62 -2 -85 0 -24 2 -5 4 42 4 47
0 66 -2 43 -4z m-473 -65 c0 -17 -10 -6 -25 25 l-16 32 20 -25 c11 -14 21 -28
21 -32z m418 6 c19 -6 23 -12 20 -43 -2 -30 -7 -37 -27 -39 -27 -4 -52 21 -45
44 15 50 12 48 52 38z m157 -19 c6 0 10 -13 10 -29 0 -39 -16 -42 -36 -8 -17
30 -14 57 4 45 7 -4 17 -8 22 -8z m645 -25 c10 -7 -21 -10 -97 -10 -69 0 -113
4 -113 10 0 13 190 13 210 0z m-477 -20 c4 -15 0 -20 -14 -20 -10 0 -23 9 -29
20 -9 17 -8 20 13 20 16 0 26 -7 30 -20z m-505 -68 c6 -18 -15 -14 -22 4 -4
10 -1 14 6 12 6 -2 14 -10 16 -16z m-492 -44 c-3 -13 -5 -24 -5 -25 -1 -2 -1
-6 0 -9 0 -4 -5 -11 -13 -16 -10 -8 -9 -9 4 -5 10 4 18 -1 21 -14 5 -20 27
-27 27 -8 0 8 5 8 15 -1 17 -14 20 -40 4 -40 -6 0 -17 7 -25 15 -22 22 -40 19
-21 -3 10 -10 17 -25 17 -33 0 -12 2 -12 10 1 5 8 12 11 16 7 4 -3 1 -14 -7
-24 -12 -15 -12 -16 5 -10 14 6 17 4 12 -8 -3 -9 -2 -13 4 -10 6 3 8 19 5 35
-5 30 7 46 25 35 8 -5 7 -11 -1 -21 -17 -20 -3 -60 30 -83 35 -26 85 -45 76
-31 -4 7 4 9 21 6 39 -7 61 -47 41 -74 -7 -9 -13 -9 -24 -1 -11 10 -12 8 -7
-5 7 -19 -32 -59 -49 -49 -6 3 -7 1 -3 -6 9 -14 -13 -37 -34 -36 -17 1 -15 26
3 37 7 5 8 8 1 8 -5 0 -16 -6 -23 -12 -10 -11 -11 -9 -5 7 4 11 4 17 -1 13 -8
-8 -55 44 -55 61 0 7 -7 23 -16 36 -9 14 -14 32 -10 40 3 9 2 13 -4 10 -5 -3
-14 4 -21 16 -10 20 -9 21 7 15 16 -5 16 -3 -2 11 -19 16 -32 41 -38 77 -1 6
-8 28 -15 48 -12 37 -8 63 9 53 5 -3 11 -1 15 5 10 17 15 11 11 -12z m524 -24
c-11 -12 -10 -13 4 -8 9 3 16 1 16 -5 0 -21 -27 -76 -43 -90 -22 -18 -22 -32
1 -24 14 6 15 4 4 -9 -11 -14 -16 -13 -40 11 -28 27 -24 43 5 19 14 -11 16
-11 11 2 -2 8 -14 19 -26 25 -12 5 -22 13 -22 18 0 9 17 1 40 -19 19 -16 35
-7 45 25 5 16 4 21 -4 16 -8 -4 -10 1 -7 17 7 38 19 63 24 50 2 -7 -2 -19 -8
-28z m368 27 c15 -1 16 -31 1 -31 -5 0 -7 -4 -4 -10 4 -6 -2 -7 -17 -1 -13 5
-36 7 -51 6 -23 -3 -25 -1 -17 15 12 22 28 29 55 25 11 -2 26 -4 33 -4z m-459
-38 c-13 -15 -12 -15 9 -4 30 16 60 -3 41 -26 -13 -15 -44 -9 -70 13 -8 8 -24
14 -35 14 -16 0 -17 2 -4 10 8 5 28 10 44 10 25 0 27 -2 15 -17z m-409 -3 c0
-5 -4 -10 -10 -10 -5 0 -10 5 -10 10 0 6 5 10 10 10 6 0 10 -4 10 -10z m342
-26 c-12 -8 -22 -22 -22 -31 0 -11 5 -10 18 7 17 21 19 21 32 5 8 -10 15 -40
15 -71 1 -60 4 -67 25 -54 10 7 11 10 3 10 -7 0 -13 6 -13 13 1 6 10 1 20 -12
19 -22 20 -22 20 -3 0 12 -8 25 -17 31 -10 5 -15 13 -11 16 4 4 18 -4 32 -18
14 -14 28 -22 32 -18 4 3 -3 -9 -16 -26 -26 -37 -41 -41 -64 -17 -14 14 -20
11 -18 -7 1 -4 -8 -4 -20 -1 l-22 5 22 8 c27 10 29 29 3 22 -24 -6 -36 16 -44
79 -7 48 8 78 36 78 6 0 1 -7 -11 -16z m130 -26 c-7 -7 -12 -8 -12 -2 0 14 12
26 19 19 2 -3 -1 -11 -7 -17z m512 0 c-18 -20 -18 -21 -1 -15 34 12 67 19 67
14 0 -7 -103 -42 -114 -39 -5 2 -6 -4 -2 -13 3 -9 2 -14 -3 -11 -12 8 -33 -19
-23 -29 4 -4 0 -5 -8 -1 -8 3 -23 9 -32 12 -10 4 -18 10 -18 15 0 12 7 11 30
-1 14 -8 21 -5 34 15 9 14 26 25 38 25 12 0 18 3 15 6 -9 9 11 44 25 44 6 0 3
-10 -8 -22z m-454 -8 c0 -5 -5 -10 -11 -10 -5 0 -7 5 -4 10 3 6 8 10 11 10 2
0 4 -4 4 -10z m896 -18 c-6 -17 -10 -18 -31 -8 -32 15 -32 28 0 16 20 -8 25
-6 25 7 0 9 3 14 6 10 3 -3 3 -14 0 -25z m-514 3 c0 -5 -5 -11 -11 -13 -6 -2
-11 4 -11 13 0 9 5 15 11 13 6 -2 11 -8 11 -13z m333 1 c18 -8 36 -12 39 -8 3
3 6 0 6 -6 0 -15 -3 -15 -45 2 -33 14 -36 14 -50 -7 -14 -21 -14 -22 7 -28 26
-6 37 9 17 23 -10 7 -7 8 11 3 14 -4 35 -9 47 -12 21 -5 41 -33 24 -33 -5 0
-11 4 -13 9 -1 4 -13 12 -25 15 -17 5 -23 3 -23 -7 0 -8 11 -18 25 -21 14 -4
23 -11 20 -16 -4 -6 -14 -6 -28 2 -12 6 -38 11 -57 11 -30 -1 -32 0 -10 6 24
7 24 7 4 13 -12 3 -28 1 -37 -4 -9 -4 -44 -10 -79 -12 -35 -2 -76 -9 -91 -17
-24 -11 -30 -11 -38 2 -8 12 -12 10 -25 -7 -13 -19 -18 -20 -39 -10 -14 6 -25
15 -25 20 0 4 11 1 25 -8 14 -9 25 -12 25 -7 0 5 7 17 16 26 13 13 19 14 25 4
5 -10 19 -7 60 9 35 15 56 19 64 12 12 -10 35 5 35 24 0 5 -7 1 -16 -10 -8
-10 -12 -12 -8 -4 25 52 87 66 159 36z m80 -6 c26 -29 25 -85 -3 -112 -18 -18
-26 -20 -48 -13 -15 6 -29 16 -32 23 -3 11 2 10 20 -2 22 -14 26 -14 46 0 15
10 22 25 22 47 0 42 -10 56 -46 67 -29 8 -29 8 -3 9 14 1 34 -8 44 -19z m-515
-12 c0 -6 -6 -5 -15 2 -8 7 -15 14 -15 16 0 2 7 1 15 -2 8 -4 15 -11 15 -16z
m71 1 c21 -18 21 -20 4 -14 -11 4 -27 8 -34 9 -8 2 -17 8 -19 14 -6 19 24 14
49 -9z m154 1 c-62 -28 -96 -33 -40 -6 28 14 57 25 65 25 8 -1 -3 -9 -25 -19z
m-246 -26 c37 -47 20 -154 -24 -154 -41 0 -70 93 -44 143 23 44 40 46 68 11z
m56 -32 c-3 -3 -11 0 -18 7 -9 10 -8 11 6 5 10 -3 15 -9 12 -12z m-124 -109
c37 -44 70 -36 95 22 11 25 13 26 14 9 0 -12 -10 -33 -21 -48 -42 -54 -107
-12 -114 75 l-4 44 9 -44 c5 -24 15 -50 21 -58z m-76 67 c-3 -5 -11 -10 -16
-10 -6 0 -7 5 -4 10 3 6 11 10 16 10 6 0 7 -4 4 -10z m35 -26 c0 -14 -12 -19
-23 -8 -9 9 4 35 14 28 5 -3 9 -12 9 -20z m-369 -70 c39 -42 142 -112 211
-143 98 -44 161 -56 288 -55 134 1 236 29 330 88 62 40 101 49 60 14 -43 -36
-182 -96 -262 -112 -182 -38 -376 1 -528 104 -76 51 -159 129 -139 130 8 0 26
-12 40 -26z m119 7 l45 -8 -45 -3 c-33 -2 -17 -6 60 -15 58 -8 116 -14 130
-15 l25 -2 -25 -8 c-21 -7 -18 -8 20 -9 25 -1 101 -10 170 -21 167 -26 301
-26 285 0 -3 5 11 3 31 -3 34 -10 35 -11 12 -20 -12 -5 -28 -10 -34 -11 -7 -1
-19 -8 -28 -15 -9 -7 -16 -10 -16 -6 0 4 -11 0 -25 -9 -42 -28 -298 -51 -361
-33 -11 3 -38 11 -62 17 -23 6 -40 15 -37 20 3 4 -5 6 -16 3 -14 -4 -25 0 -31
10 -4 9 -15 14 -22 11 -7 -3 -16 2 -20 12 -5 12 -2 15 11 10 14 -6 15 -5 6 5
-10 10 -15 9 -27 0 -17 -15 -41 -3 -41 19 0 8 -7 15 -16 15 -9 0 -27 8 -40 18
-70 51 -68 46 -29 46 19 0 55 -4 80 -8z m-130 -91 c0 -5 -8 -15 -17 -22 -10
-7 -23 -22 -29 -33 -17 -30 -43 -30 -75 1 l-29 28 47 48 47 48 28 -31 c15 -16
28 -34 28 -39z m1060 36 c0 -7 -9 -16 -20 -19 -26 -7 -26 -39 0 -62 22 -20 50
-14 50 10 0 12 -6 15 -20 10 -25 -8 -26 7 -1 29 18 16 20 16 35 -6 22 -31 20
-43 -10 -67 -35 -27 -46 -26 -78 5 -32 32 -33 60 -4 91 24 26 48 30 48 9z m51
-13 c13 -16 12 -17 -3 -4 -17 13 -22 21 -14 21 2 0 10 -8 17 -17z m-1061 -32
c0 -5 -11 -16 -25 -25 -15 -10 -25 -12 -25 -5 0 6 9 13 20 16 11 3 20 9 20 14
0 5 2 9 5 9 3 0 5 -4 5 -9z m929 -71 c17 -28 31 -55 31 -60 0 -16 -33 -11 -67
10 -38 23 -41 18 -13 -17 23 -30 25 -43 6 -43 -7 0 -27 23 -45 52 -38 61 -28
77 32 46 l40 -20 -22 35 c-16 26 -18 36 -9 40 7 3 14 6 15 6 1 1 15 -22 32
-49z m-901 32 c10 -7 9 -22 -5 -75 -17 -65 -35 -82 -41 -39 -5 30 -28 47 -46
33 -10 -9 -16 -9 -21 -1 -8 13 -12 9 45 54 50 39 50 39 68 28z m56 -24 c-5 -7
-2 -9 8 -5 9 3 15 1 14 -6 -4 -25 -22 -45 -46 -51 -14 -4 -20 -4 -15 1 6 4 12
19 14 33 1 14 8 28 15 32 16 11 18 10 10 -4z m739 -150 c-10 -18 -23 -5 -48
49 -20 44 -23 58 -13 65 9 5 21 -9 39 -50 15 -31 25 -60 22 -64z m180 105 c-3
-7 -9 -10 -14 -7 -14 8 -11 21 5 21 8 0 12 -6 9 -14z m-853 2 c0 -12 -50 -104
-60 -110 -6 -4 -23 1 -37 10 -20 14 -23 19 -12 26 8 5 15 4 17 -1 7 -21 23 -8
44 35 12 25 28 45 35 45 7 0 13 -2 13 -5z m50 -10 c9 5 11 4 6 -3 -11 -18 -36
-14 -36 6 0 13 2 14 9 3 5 -8 14 -10 21 -6z m525 -26 c0 -8 -7 -13 -16 -11
-27 4 -44 -25 -31 -53 12 -26 40 -33 59 -14 8 8 13 7 18 -2 10 -15 -21 -39
-51 -39 -27 0 -64 44 -64 75 0 22 22 48 50 58 22 8 35 2 35 -14z m-651 -3 c-3
-8 -12 -12 -21 -9 -12 5 -12 7 -1 14 20 13 28 11 22 -5z m160 8 c12 -5 16 -21
16 -75 0 -57 -3 -67 -15 -63 -8 4 -15 12 -15 19 0 19 -28 26 -50 13 -34 -22
-32 -1 6 56 20 31 38 56 40 56 1 0 9 -3 18 -6z m400 -2 c2 -4 -2 -16 -10 -27
-8 -10 -14 -13 -14 -6 0 7 -4 9 -10 6 -5 -3 -10 1 -10 10 0 11 5 15 16 11 8
-3 12 -2 9 4 -3 6 -2 10 4 10 5 0 12 -3 15 -8z m-274 -12 c8 -1 2 -8 -15 -15
-21 -10 -25 -14 -11 -15 16 0 17 -2 5 -17 -10 -11 -10 -14 -1 -9 6 4 12 2 12
-3 0 -6 -6 -11 -12 -12 -10 0 -10 -2 0 -6 9 -4 10 -8 2 -18 -8 -9 -8 -15 0
-20 5 -3 10 -15 10 -26 0 -13 -4 -18 -11 -13 -7 4 -23 7 -37 8 -23 1 -24 5
-29 65 -2 35 -2 69 1 76 4 11 27 13 86 5z m150 -15 c-6 -8 -9 -19 -5 -26 6 -8
2 -8 -14 0 -26 14 -27 28 -3 34 31 8 35 7 22 -8z m89 -54 c21 -42 27 -62 19
-67 -6 -4 -17 1 -24 10 -17 24 -49 16 -48 -10 0 -16 -4 -20 -19 -16 -15 4 -18
11 -13 36 4 17 9 48 13 69 9 57 35 49 72 -22z m160 42 c8 -16 5 -18 -22 -16
-45 2 -45 2 -17 18 31 18 28 18 39 -2z m-295 -15 c7 -12 6 -24 -4 -43 -10 -19
-11 -28 -2 -37 16 -16 15 -28 -3 -28 -9 0 -21 11 -27 25 -6 14 -15 25 -20 25
-4 0 -8 -11 -8 -25 0 -16 -6 -25 -15 -25 -12 0 -15 14 -15 66 l0 65 41 -3 c26
-2 46 -10 53 -20z m-341 -38 c-3 -11 -9 -17 -15 -14 -5 3 -4 12 3 20 16 19 18
18 12 -6z m372 -21 c-4 -5 -12 -9 -18 -8 -9 0 -8 2 1 6 6 2 9 10 6 15 -4 7 -2
8 5 4 6 -4 9 -12 6 -17z m185 -34 c0 -2 -9 -3 -19 -2 -11 0 -18 5 -15 9 4 6
34 0 34 -7z"/>
<path d="M1384 1719 c-10 -17 13 -36 27 -22 12 12 4 33 -11 33 -5 0 -12 -5
-16 -11z"/>
<path d="M580 1705 c0 -18 19 -40 26 -32 4 4 0 15 -9 24 -9 10 -17 13 -17 8z"/>
<path d="M901 1637 c2 -1 13 -9 24 -17 19 -14 19 -14 6 3 -7 9 -18 17 -24 17
-6 0 -8 -1 -6 -3z"/>
<path d="M870 1620 c0 -5 5 -10 11 -10 5 0 7 5 4 10 -3 6 -8 10 -11 10 -2 0
-4 -4 -4 -10z"/>
<path d="M1110 1616 c0 -2 7 -7 16 -10 8 -3 12 -2 9 4 -6 10 -25 14 -25 6z"/>
<path d="M808 1583 c7 -3 16 -2 19 1 4 3 -2 6 -13 5 -11 0 -14 -3 -6 -6z"/>
<path d="M1315 1550 c3 -5 8 -10 11 -10 2 0 4 5 4 10 0 6 -5 10 -11 10 -5 0
-7 -4 -4 -10z"/>
<path d="M1105 1500 c-4 -6 -11 -8 -16 -5 -16 10 -10 -2 9 -16 9 -7 14 -9 10
-5 -4 5 -3 15 3 23 6 7 9 13 6 13 -3 0 -9 -5 -12 -10z"/>
<path d="M1380 1470 c0 -5 5 -10 11 -10 5 0 7 5 4 10 -3 6 -8 10 -11 10 -2 0
-4 -4 -4 -10z"/>
<path d="M1410 1396 c0 -2 9 -6 20 -9 11 -3 18 -1 14 4 -5 9 -34 13 -34 5z"/>
<path d="M1433 1362 c-13 -2 -23 -7 -23 -12 0 -8 58 -3 68 5 7 6 -25 11 -45 7z"/>
<path d="M1475 1309 c-40 -6 -39 -6 13 -8 51 -1 65 3 40 11 -7 2 -31 1 -53 -3z"/>
<path d="M1418 1263 c7 -3 16 -2 19 1 4 3 -2 6 -13 5 -11 0 -14 -3 -6 -6z"/>
<path d="M371 1550 c-24 -14 2 -60 34 -60 21 0 26 4 23 21 -4 28 -38 51 -57
39z"/>
<path d="M555 1441 c-3 -6 3 -9 14 -8 11 0 17 5 15 9 -7 11 -22 10 -29 -1z"/>
<path d="M540 1390 c-23 -7 -23 -8 -3 -9 12 -1 25 4 28 9 3 6 5 10 3 9 -2 -1
-14 -5 -28 -9z"/>
<path d="M580 1386 c0 -2 11 -6 25 -8 14 -3 25 -1 25 3 0 5 -11 9 -25 9 -14 0
-25 -2 -25 -4z"/>
<path d="M535 1359 c-16 -7 -15 -8 7 -6 15 2 30 5 33 8 8 8 -18 7 -40 -2z"/>
<path d="M618 1343 c7 -3 16 -2 19 1 4 3 -2 6 -13 5 -11 0 -14 -3 -6 -6z"/>
<path d="M465 1277 c23 -13 86 -20 64 -6 -8 5 -21 6 -31 3 -9 -2 -19 0 -23 6
-3 5 -12 10 -18 10 -7 0 -3 -6 8 -13z"/>
<path d="M580 1276 c0 -2 9 -6 20 -9 11 -3 20 -1 20 4 0 5 -9 9 -20 9 -11 0
-20 -2 -20 -4z"/>
<path d="M704 1160 l-2 -30 116 0 c91 0 113 3 104 12 -12 12 -155 13 -194 2
-13 -4 -16 0 -12 21 2 14 1 25 -3 25 -5 0 -9 -13 -9 -30z"/>
<path d="M788 1163 c7 -3 16 -2 19 1 4 3 -2 6 -13 5 -11 0 -14 -3 -6 -6z"/>
<path d="M838 1163 c6 -2 18 -2 25 0 6 3 1 5 -13 5 -14 0 -19 -2 -12 -5z"/>
<path d="M820 1402 c0 -26 2 -27 45 -24 40 4 45 7 45 28 0 22 -4 24 -45 24
-42 0 -45 -2 -45 -28z m63 1 c-7 -2 -21 -2 -30 0 -10 3 -4 5 12 5 17 0 24 -2
18 -5z"/>
<path d="M244 1367 c-9 -24 6 -44 18 -22 7 11 6 21 -1 28 -7 7 -12 6 -17 -6z"/>
<path d="M291 1346 c-13 -15 -7 -36 9 -36 12 0 22 32 12 42 -5 5 -14 2 -21 -6z"/>
<path d="M903 964 c-6 -32 -9 -61 -7 -63 2 -2 15 1 30 7 27 13 27 19 0 86 -12
29 -12 29 -23 -30z"/>
<path d="M1059 1018 c0 -2 -1 -23 -2 -48 l-2 -45 33 3 c17 2 32 6 32 8 0 13
-58 91 -61 82z m37 -65 c-7 -7 -26 7 -26 19 0 6 6 6 15 -2 9 -7 13 -15 11 -17z"/>
<path d="M712 905 c24 -16 42 -40 53 -69 16 -42 21 -46 61 -52 23 -3 49 -4 56
-2 7 3 -8 8 -33 12 -42 6 -48 11 -65 49 -18 38 -72 87 -98 87 -6 0 6 -11 26
-25z"/>
<path d="M1175 910 c22 -5 52 -13 68 -19 40 -15 33 -3 -8 15 -19 7 -49 14 -67
13 -32 -1 -32 -1 7 -9z"/>
<path d="M1112 896 c86 -16 175 -43 183 -57 9 -13 -6 -11 -35 6 -14 8 -30 14
-37 15 -19 0 7 -69 29 -76 10 -3 18 -9 18 -13 0 -18 49 3 59 25 13 30 14 34 3
34 -5 0 -15 -11 -22 -25 -7 -14 -20 -25 -29 -24 -11 0 -12 2 -3 6 7 3 17 16
23 30 8 22 14 24 61 21 48 -3 53 -5 55 -28 3 -25 3 -25 -7 -2 -14 32 -46 28
-65 -8 l-16 -30 45 0 c39 0 45 3 56 30 7 17 10 33 6 37 -3 3 -39 10 -78 14
-40 4 -99 17 -132 29 -32 11 -88 23 -125 25 l-66 5 77 -14z m168 -80 c0 -15
-24 -28 -34 -19 -7 7 13 33 25 33 5 0 9 -6 9 -14z"/>
<path d="M848 863 c45 -14 52 -20 53 -42 1 -21 2 -22 6 -6 3 11 11 27 18 35
12 13 9 15 -18 16 -18 0 -50 3 -72 7 -34 5 -32 4 13 -10z"/>
<path d="M801 837 c7 -15 16 -27 21 -27 14 0 9 16 -13 36 -21 19 -21 19 -8 -9z"/>
<path d="M1773 1295 c0 -8 4 -12 9 -9 5 3 6 10 3 15 -9 13 -12 11 -12 -6z"/>
<path d="M526 1113 c-27 -14 -28 -16 -11 -26 13 -7 20 -7 23 1 2 6 11 8 20 5
13 -4 14 -3 3 5 -7 5 -10 15 -7 21 9 14 7 14 -28 -6z"/>
<path d="M1751 1104 c0 -11 3 -14 6 -6 3 7 2 16 -1 19 -3 4 -6 -2 -5 -13z"/>
<path d="M640 1020 c-8 -5 -10 -10 -5 -10 6 0 17 5 25 10 8 5 11 10 5 10 -5 0
-17 -5 -25 -10z"/>
<path d="M198 1003 c6 -2 18 -2 25 0 6 3 1 5 -13 5 -14 0 -19 -2 -12 -5z"/>
<path d="M625 990 c-3 -6 1 -7 9 -4 18 7 21 14 7 14 -6 0 -13 -4 -16 -10z"/>
<path d="M171 947 c9 -21 15 -24 26 -16 7 6 13 17 12 23 0 6 -3 5 -6 -2 -4
-10 -10 -9 -25 5 -19 17 -19 17 -7 -10z"/>
<path d="M590 950 c0 -5 5 -10 11 -10 5 0 7 5 4 10 -3 6 -8 10 -11 10 -2 0 -4
-4 -4 -10z"/>
<path d="M430 867 c0 -15 27 -43 34 -36 3 2 -4 15 -15 28 -13 16 -19 18 -19 8z"/>
<path d="M530 875 c0 -2 6 -8 13 -14 10 -8 14 -7 14 2 0 8 -6 14 -14 14 -7 0
-13 -1 -13 -2z"/>
<path d="M514 856 c1 -8 5 -18 8 -22 4 -3 5 1 4 10 -1 8 -5 18 -8 22 -4 3 -5
-1 -4 -10z"/>
<path d="M356 722 c-2 -4 4 -8 14 -8 10 0 16 4 14 8 -3 4 -9 8 -14 8 -5 0 -11
-4 -14 -8z"/>
<path d="M1777 692 c-10 -10 -17 -22 -17 -27 0 -4 9 2 20 15 11 13 20 25 20
27 0 7 -8 2 -23 -15z"/>
<path d="M716 692 c-2 -4 13 -6 35 -4 21 2 39 6 39 8 0 7 -69 4 -74 -4z"/>
<path d="M453 665 c0 -8 4 -12 9 -9 5 3 6 10 3 15 -9 13 -12 11 -12 -6z"/>
<path d="M1647 662 c-19 -20 -23 -37 -7 -27 17 10 11 -2 -7 -16 -10 -7 -15 -9
-10 -4 7 9 -20 45 -35 45 -14 0 -4 -23 17 -41 14 -12 25 -14 37 -8 10 6 19 5
23 -1 3 -5 -2 -10 -12 -10 -15 0 -16 -2 -3 -10 21 -13 31 10 14 34 -12 17 -11
22 3 38 9 10 12 18 6 18 -5 0 -17 -8 -26 -18z"/>
<path d="M1770 624 c0 -8 5 -12 10 -9 6 4 8 11 5 16 -9 14 -15 11 -15 -7z"/>
<path d="M1360 610 c6 -11 13 -20 16 -20 2 0 0 9 -6 20 -6 11 -13 20 -16 20
-2 0 0 -9 6 -20z"/>
<path d="M1580 611 c0 -5 7 -12 16 -15 8 -3 12 -11 8 -17 -4 -8 -3 -9 4 -5 9
5 9 13 2 27 -11 19 -30 26 -30 10z"/>
<path d="M1265 584 c22 -8 52 -16 66 -18 14 -2 31 -6 38 -10 21 -13 71 -25 71
-17 0 5 -15 14 -32 21 -18 6 -41 16 -52 22 -10 5 -44 11 -75 13 l-56 4 40 -15z"/>
<path d="M1626 572 c-3 -5 1 -9 9 -9 8 0 12 4 9 9 -3 4 -7 8 -9 8 -2 0 -6 -4
-9 -8z"/>
<path d="M810 1245 c0 -23 4 -25 45 -25 41 0 45 2 45 25 0 23 -4 25 -45 25
-41 0 -45 -2 -45 -25z m63 -2 c-7 -2 -21 -2 -30 0 -10 3 -4 5 12 5 17 0 24 -2
18 -5z"/>
<path d="M1380 1119 c-19 -17 -27 -28 -18 -25 14 4 17 0 15 -17 -1 -12 -6 -26
-12 -30 -10 -9 2 -6 39 9 15 6 17 4 11 -7 -8 -12 -6 -12 8 0 9 7 17 19 17 25
0 6 -5 4 -11 -4 -9 -13 -10 -13 -6 0 2 8 13 15 25 14 12 0 19 3 16 7 -6 10 7
40 15 34 4 -2 8 2 8 10 0 17 -12 10 -70 -44 l-38 -36 12 35 c7 19 16 41 22 48
16 21 3 13 -33 -19z"/>
<path d="M1520 1061 c0 -10 19 -25 25 -20 1 2 -3 10 -11 17 -8 7 -14 8 -14 3z"/>
<path d="M1385 939 c-14 -5 -2 -8 35 -8 30 0 62 4 70 9 18 12 -74 11 -105 -1z"/>
<path d="M1528 903 c17 -2 47 -2 65 0 17 2 3 4 -33 4 -36 0 -50 -2 -32 -4z"/>
<path d="M1506 865 c-9 -26 -7 -32 5 -12 6 10 9 21 6 23 -2 3 -7 -2 -11 -11z"/>
<path d="M420 561 c0 -6 4 -13 10 -16 6 -3 7 1 4 9 -7 18 -14 21 -14 7z"/>
<path d="M250 546 c0 -8 4 -17 9 -20 5 -4 7 3 4 14 -6 23 -13 26 -13 6z"/>
<path d="M999 833 c-12 -16 -12 -17 2 -6 9 7 20 9 24 5 5 -4 5 -1 1 6 -9 16
-11 15 -27 -5z"/>
<path d="M626 801 c-3 -5 0 -11 7 -14 8 -3 14 1 14 9 0 16 -13 19 -21 5z"/>
<path d="M536 745 c-10 -27 -7 -60 8 -80 13 -18 14 -18 25 4 7 13 10 25 8 28
-3 2 -8 -5 -12 -18 -6 -17 -9 -19 -16 -8 -5 8 -9 21 -9 29 0 13 1 13 10 0 8
-13 10 -12 10 3 0 9 6 17 13 17 9 0 9 2 -1 9 -8 4 -13 12 -12 17 3 16 -18 15
-24 -1z m21 -10 c0 -8 -4 -15 -9 -15 -10 0 -11 14 -1 23 9 10 10 9 10 -8z"/>
<path d="M607 619 c7 -7 15 -10 18 -7 3 3 -2 9 -12 12 -14 6 -15 5 -6 -5z"/>
<path d="M1332 719 c-19 -30 -8 -34 12 -4 9 14 13 25 9 25 -5 0 -14 -9 -21
-21z"/>
<path d="M1370 725 c-7 -9 -11 -18 -8 -20 3 -3 11 1 18 10 7 9 11 18 8 20 -3
3 -11 -1 -18 -10z"/>
<path d="M936 678 c-9 -12 -16 -34 -16 -48 0 -31 26 -70 45 -70 19 0 35 31 35
67 0 29 -24 73 -40 73 -5 0 -16 -10 -24 -22z m48 -42 c3 -25 0 -43 -9 -52 -18
-18 -22 -18 -35 6 -12 23 -3 51 10 30 10 -16 31 -4 24 14 -3 8 -14 12 -25 9
-21 -6 -22 -3 -13 22 5 13 8 14 15 3 7 -10 9 -8 9 7 0 33 19 3 24 -39z"/>
<path d="M702 471 c-11 -6 -10 -10 4 -15 9 -3 19 -4 22 -1 3 3 0 5 -7 5 -7 0
-9 5 -6 10 7 12 4 12 -13 1z"/>
<path d="M888 433 c7 -3 16 -2 19 1 4 3 -2 6 -13 5 -11 0 -14 -3 -6 -6z"/>
<path d="M798 383 c7 -3 16 -2 19 1 4 3 -2 6 -13 5 -11 0 -14 -3 -6 -6z"/>
<path d="M1148 373 c7 -3 16 -2 19 1 4 3 -2 6 -13 5 -11 0 -14 -3 -6 -6z"/>
<path d="M435 460 c-10 -17 12 -37 25 -24 8 8 6 15 -4 23 -10 9 -16 9 -21 1z"/>
<path d="M396 421 c-7 -10 22 -37 30 -28 9 8 -3 37 -15 37 -5 0 -12 -4 -15 -9z"/>
<path d="M531 347 c-6 -8 -8 -17 -4 -20 11 -12 21 -7 26 13 6 23 -5 26 -22 7z"/>
<path d="M621 353 c-1 -17 16 -25 25 -12 4 7 3 9 -4 5 -5 -3 -13 0 -15 6 -4 9
-6 10 -6 1z"/>
<path d="M753 241 c-10 -15 -9 -20 2 -25 11 -4 15 2 15 19 0 30 -2 31 -17 6z"/>
<path d="M1100 210 c0 -11 7 -20 15 -20 13 0 14 4 5 20 -6 11 -13 20 -15 20
-3 0 -5 -9 -5 -20z"/>
<path d="M950 220 c0 -15 5 -20 18 -18 9 2 17 10 17 18 0 8 -8 16 -17 18 -13
2 -18 -3 -18 -18z"/>
<path d="M515 1910 c-3 -6 1 -7 9 -4 18 7 21 14 7 14 -6 0 -13 -4 -16 -10z"/>
<path d="M366 1828 c3 -5 10 -6 15 -3 13 9 11 12 -6 12 -8 0 -12 -4 -9 -9z"/>
<path d="M345 1810 c-4 -6 -11 -7 -17 -4 -7 4 -8 2 -4 -4 10 -16 23 -15 30 3
6 17 0 20 -9 5z"/>
<path d="M289 1747 c6 -8 7 -18 3 -22 -4 -5 -1 -5 6 -1 10 6 10 11 1 22 -6 8
-14 14 -16 14 -3 0 0 -6 6 -13z"/>
<path d="M1735 1739 c-6 -8 -4 -10 5 -4 10 6 12 4 6 -11 -6 -15 -5 -17 5 -6 9
9 10 15 2 23 -8 8 -13 7 -18 -2z"/>
<path d="M243 1714 c0 -7 8 -12 17 -11 22 1 22 23 0 23 -9 0 -17 -6 -17 -12z"/>
<path d="M163 1665 c0 -8 4 -12 9 -9 5 3 6 10 3 15 -9 13 -12 11 -12 -6z"/>
<path d="M194 1659 c-3 -6 -2 -15 3 -20 5 -5 9 -1 9 11 0 23 -2 24 -12 9z"/>
<path d="M1970 1321 c0 -6 4 -13 10 -16 6 -3 7 1 4 9 -7 18 -14 21 -14 7z"/>
<path d="M1826 363 c-6 -14 -5 -15 5 -6 7 7 10 15 7 18 -3 3 -9 -2 -12 -12z"/>
<path d="M1786 328 c3 -5 10 -6 15 -3 13 9 11 12 -6 12 -8 0 -12 -4 -9 -9z"/>
<path d="M248 283 c6 -2 9 -10 6 -15 -4 -7 -2 -8 5 -4 13 9 5 26 -12 25 -9 0
-8 -2 1 -6z"/>
<path d="M323 186 c-3 -6 -3 -8 2 -4 4 4 13 3 20 -2 8 -7 12 -5 12 3 0 16 -25
18 -34 3z"/>
<path d="M1656 192 c-3 -5 1 -9 9 -9 8 0 12 4 9 9 -3 4 -7 8 -9 8 -2 0 -6 -4
-9 -8z"/>
<path d="M1626 181 c-3 -5 1 -11 9 -14 9 -4 12 -1 8 9 -6 16 -10 17 -17 5z"/>
<path d="M447 89 c7 -7 15 -10 18 -7 3 3 -2 9 -12 12 -14 6 -15 5 -6 -5z"/>
<path d="M1485 90 c-3 -6 1 -7 9 -4 18 7 21 14 7 14 -6 0 -13 -4 -16 -10z"/>
</g>
</svg>
